<svg version="1.1" xmlns="http://www.w3.org/2000/svg" xmlns:xlink="http://www.w3.org/1999/xlink" width="73.16681" height="19.49866" viewBox="0,0,73.16681,19.49866"><defs><linearGradient x1="206.6298" y1="171.0093" x2="206.6298" y2="180.54296" gradientUnits="userSpaceOnUse" id="color-1"><stop offset="0" stop-color="#ffaafc"></stop><stop offset="1" stop-color="#aab8ff"></stop></linearGradient><linearGradient x1="207.09522" y1="178.25535" x2="207.09522" y2="188.8086" gradientUnits="userSpaceOnUse" id="color-2"><stop offset="0" stop-color="#ffaafc"></stop><stop offset="1" stop-color="#aab8ff"></stop></linearGradient><linearGradient x1="204.3411" y1="171.05389" x2="204.3411" y2="188.79547" gradientUnits="userSpaceOnUse" id="color-3"><stop offset="0" stop-color="#ffaafc"></stop><stop offset="1" stop-color="#aab8ff"></stop></linearGradient><linearGradient x1="214.05868" y1="171.18394" x2="214.05868" y2="188.85189" gradientUnits="userSpaceOnUse" id="color-4"><stop offset="0" stop-color="#ffaafc"></stop><stop offset="1" stop-color="#aab8ff"></stop></linearGradient><linearGradient x1="217.73856" y1="181.06281" x2="217.73856" y2="188.85761" gradientUnits="userSpaceOnUse" id="color-5"><stop offset="0" stop-color="#ffaafc"></stop><stop offset="1" stop-color="#aab8ff"></stop></linearGradient><linearGradient x1="217.52391" y1="171.11473" x2="217.52391" y2="181.40118" gradientUnits="userSpaceOnUse" id="color-6"><stop offset="0" stop-color="#ffaafc"></stop><stop offset="1" stop-color="#aab8ff"></stop></linearGradient><linearGradient x1="223.3685" y1="171.07004" x2="223.3685" y2="188.87359" gradientUnits="userSpaceOnUse" id="color-7"><stop offset="0" stop-color="#ffaafc"></stop><stop offset="1" stop-color="#aab8ff"></stop></linearGradient><linearGradient x1="235.15991" y1="170.9108" x2="235.15991" y2="188.71434" gradientUnits="userSpaceOnUse" id="color-8"><stop offset="0" stop-color="#ffaafc"></stop><stop offset="1" stop-color="#aab8ff"></stop></linearGradient><linearGradient x1="237.05716" y1="186.38517" x2="237.05716" y2="188.73712" gradientUnits="userSpaceOnUse" id="color-9"><stop offset="0" stop-color="#ffaafc"></stop><stop offset="1" stop-color="#aab8ff"></stop></linearGradient><linearGradient x1="227.78681" y1="170.92956" x2="227.78681" y2="188.73311" gradientUnits="userSpaceOnUse" id="color-10"><stop offset="0" stop-color="#ffaafc"></stop><stop offset="1" stop-color="#aab8ff"></stop></linearGradient><linearGradient x1="229.68406" y1="186.40392" x2="229.68406" y2="188.75588" gradientUnits="userSpaceOnUse" id="color-11"><stop offset="0" stop-color="#ffaafc"></stop><stop offset="1" stop-color="#aab8ff"></stop></linearGradient><linearGradient x1="242.29945" y1="170.93736" x2="242.29945" y2="188.74091" gradientUnits="userSpaceOnUse" id="color-12"><stop offset="0" stop-color="#ffaafc"></stop><stop offset="1" stop-color="#aab8ff"></stop></linearGradient><linearGradient x1="262.41576" y1="170.45023" x2="262.41576" y2="189.74936" gradientUnits="userSpaceOnUse" id="color-13"><stop offset="0" stop-color="#ffaafc"></stop><stop offset="1" stop-color="#aab8ff"></stop></linearGradient><linearGradient x1="273.04127" y1="170.91402" x2="273.04127" y2="173.21412" gradientUnits="userSpaceOnUse" id="color-14"><stop offset="0" stop-color="#ffaafc"></stop><stop offset="1" stop-color="#aab8ff"></stop></linearGradient><linearGradient x1="273.16197" y1="170.88341" x2="273.16197" y2="188.68696" gradientUnits="userSpaceOnUse" id="color-15"><stop offset="0" stop-color="#ffaafc"></stop><stop offset="1" stop-color="#aab8ff"></stop></linearGradient><linearGradient x1="247.42458" y1="170.2507" x2="247.42458" y2="188.81023" gradientUnits="userSpaceOnUse" id="color-16"><stop offset="0" stop-color="#ffaafc"></stop><stop offset="1" stop-color="#aab8ff"></stop></linearGradient><linearGradient x1="250.12985" y1="182.30446" x2="250.12985" y2="184.29665" gradientUnits="userSpaceOnUse" id="color-17"><stop offset="0" stop-color="#ffaafc"></stop><stop offset="1" stop-color="#aab8ff"></stop></linearGradient><linearGradient x1="252.92926" y1="170.2801" x2="252.92926" y2="188.81513" gradientUnits="userSpaceOnUse" id="color-18"><stop offset="0" stop-color="#ffaafc"></stop><stop offset="1" stop-color="#aab8ff"></stop></linearGradient></defs><g transform="translate(-203.41659,-170.2507)"><g data-paper-data="{&quot;isPaintingLayer&quot;:true}" fill-rule="nonzero" stroke="none" stroke-width="0" stroke-linecap="butt" stroke-linejoin="miter" stroke-miterlimit="10" stroke-dasharray="" stroke-dashoffset="0" style="mix-blend-mode: normal"><g><path d="M209.83594,175.4355c0,2.5752 -2.20741,5.0825 -3.71019,5.0988c-1.99175,0.02161 -2.68115,-0.00401 -2.68115,-0.00401l-0.00036,-2.29459c0,0 0.84653,0.04253 2.64398,-0.00834c0.51894,-0.01469 1.84683,-1.05577 1.85694,-2.7297c0.01011,-1.67466 -1.39617,-2.18534 -1.85802,-2.18545c-1.24324,-0.00031 -2.65652,0.02079 -2.65652,0.02079l-0.00696,-2.31555c0,0 2.18764,-0.02029 2.93033,0.00323c1.82955,0.05796 3.48195,1.75652 3.48195,4.41482z" fill="url(#color-1)"></path><path d="M210.77291,183.60216c-0.05785,3.4169 -2.49461,5.21051 -3.64139,5.20642c-2.67033,-0.00953 -3.69101,-0.00375 -3.69101,-0.00375l-0.00041,-2.22409c0,0 0.53421,-0.02215 2.58867,-0.01791c1.75416,0.00361 2.84185,-1.81848 2.8534,-2.95179c0.01155,-1.85299 -1.89473,-2.80744 -2.42241,-2.80757c-1.42047,-0.00034 -3.03521,0.023 -3.03521,0.023l-0.00796,-2.56212c0,0 2.4995,-0.02246 3.34806,0.00358c2.09036,0.06413 4.05805,2.39328 4.00826,5.33424z" fill="url(#color-2)"></path><path d="M203.42701,188.79547v-17.74158h1.82817v17.74158z" fill="url(#color-3)"></path></g><g><path d="M213.25402,188.85189v-17.66796h1.60932v17.66796z" fill="url(#color-4)"></path><path d="M218.5317,188.85761l-3.54743,-7.77456l1.83524,-0.02023l3.67334,7.77456z" fill="url(#color-5)"></path><path d="M220.37729,176.242c0,2.83171 -2.13147,5.12727 -4.35066,5.12727c-0.83603,0 -1.34697,0.03191 -1.34697,0.03191l0.01159,-1.96725l1.21636,-0.02753c0,0 1.02488,-0.1389 1.78174,-0.85458c0.89742,-0.84858 0.97793,-2.03874 0.97768,-2.31404c-0.00033,-0.37158 -0.33139,-1.58275 -0.8776,-2.18106c-0.54621,-0.59831 -1.90216,-0.86386 -1.90216,-0.86386l-1.21493,-0.01176l-0.00183,-2.05904c0,0 1.10156,-0.00733 1.68857,-0.00733c2.21919,0 4.01819,2.29556 4.01819,5.12727z" fill="url(#color-6)"></path></g><path d="M222.56384,188.87359v-17.80355h1.60932v17.80355z" fill="url(#color-7)"></path><g><path d="M234.35525,188.71434v-17.80355h1.60932v17.80355z" fill="url(#color-8)"></path><path d="M234.35521,188.73712v-2.35196h5.4039v2.35196z" fill="url(#color-9)"></path></g><g><path d="M226.98215,188.73311v-17.80355h1.60932v17.80355z" fill="url(#color-10)"></path><path d="M226.98211,188.75588v-2.35196h5.4039v2.35196z" fill="url(#color-11)"></path></g><path d="M241.49479,188.74091v-17.80355h1.60932v17.80355z" fill="url(#color-12)"></path><path d="M257.26946,188.65664v-18.20641l8.6916,13.33888l0.08573,-12.65992l1.51526,0.01354v18.60664l-8.67937,-13.35829l-0.03421,12.26941z" fill="url(#color-13)"></path><g><path d="M269.49914,173.21412v-2.30009h7.08426v2.30009z" fill="url(#color-14)"></path><path d="M272.35731,188.68696v-17.80355h1.60932v17.80355z" fill="url(#color-15)"></path></g><g><path d="M244.62256,188.81023l5.60405,-18.55952l-0.01562,5.03717l-3.92077,13.52235z" fill="url(#color-16)"></path><path d="M247.44371,184.29665v-1.9922h5.37229v1.9922z" fill="url(#color-17)"></path><path d="M254.05581,188.81513l-3.92077,-13.52235l0.0864,-5.01269l5.50204,18.53503z" data-paper-data="{&quot;index&quot;:null}" fill="url(#color-18)"></path></g></g></g></svg>