<svg version="1.1" xmlns="http://www.w3.org/2000/svg" xmlns:xlink="http://www.w3.org/1999/xlink" width="40.84267" height="19.9427" viewBox="0,0,40.84267,19.9427"><g transform="translate(-219.57866,-170.02865)"><g data-paper-data="{&quot;isPaintingLayer&quot;:true}" fill="#f5ffab" fill-rule="nonzero" stroke="none" stroke-width="0" stroke-linecap="butt" stroke-linejoin="miter" stroke-miterlimit="10" stroke-dasharray="" stroke-dashoffset="0" style="mix-blend-mode: normal"><path d="M219.57866,188.85789v-18.55184l8.8565,13.59196l0.08736,-12.90011l1.54401,0.0138v18.95965l-8.84404,-13.61174l-0.03485,12.50219z"></path><g><path d="M239.8968,189.00596l5.7302,-18.97731l-0.01596,5.15057l-4.00903,13.82674z"></path><path d="M242.78146,184.39079v-2.03704h5.49322v2.03704z"></path><path d="M249.5424,189.01098l-4.00903,-13.82674l0.08835,-5.12553l5.62589,18.95227z" data-paper-data="{&quot;index&quot;:null}"></path></g><g><path d="M232.47355,188.86863v-18.00407h1.66642v18.00407z"></path><path d="M232.51644,173.36129v-2.49216h6.76046v2.49216z"></path><path d="M232.49332,180.26902v-2.49216h6.76046v2.49216z"></path><path d="M232.48996,188.89752v-2.49216h6.76046v2.49216z"></path></g><g><path d="M253.02444,188.9242v-18.05377h1.64446v18.05377z"></path><path d="M258.41737,188.93003l-3.6249,-7.94433l1.87531,-0.02068l3.75355,7.94433z"></path><path d="M260.30326,176.03895c0,2.89354 -2.17802,5.23923 -4.44566,5.23923c-0.85429,0 -1.37638,0.0326 -1.37638,0.0326l0.01184,-2.01021l1.24293,-0.02813c0,0 1.04726,-0.14194 1.82064,-0.87324c0.91701,-0.86711 0.99929,-2.08326 0.99903,-2.36457c-0.00034,-0.3797 -0.33862,-1.61732 -0.89675,-2.22869c-0.55813,-0.61137 -1.9437,-0.88272 -1.9437,-0.88272l-1.24146,-0.01202l-0.00187,-2.10401c0,0 1.12562,-0.0075 1.72545,-0.0075c2.26765,0 4.10593,2.34569 4.10593,5.23923z"></path></g></g></g></svg>