<svg version="1.1" xmlns="http://www.w3.org/2000/svg" xmlns:xlink="http://www.w3.org/1999/xlink" width="39.55601" height="19.90026" viewBox="0,0,39.55601,19.90026"><g transform="translate(-220.22202,-170.04988)"><g data-paper-data="{&quot;isPaintingLayer&quot;:true}" fill="#b4bede" fill-rule="nonzero" stroke="none" stroke-width="0" stroke-linecap="butt" stroke-linejoin="miter" stroke-miterlimit="10" stroke-dasharray="" stroke-dashoffset="0" style="mix-blend-mode: normal"><g><path d="M220.22209,189.23074v-18.57694h1.67923v18.57694z"></path><path d="M220.22202,189.2545v-2.45412h5.63864v2.45412z"></path></g><g><path d="M252.38603,173.0376v-2.4h7.392v2.4z"></path><path d="M255.36833,189.18259v-18.57694h1.67923v18.57694z"></path></g><g><path d="M228.96761,179.9923c0,2.68933 2.23647,6.97781 4.95719,6.91073c0.37371,-0.00922 0.55976,0.02482 0.55976,0.02482l0.0759,2.97828c0,0 -0.28132,0.02859 -0.46289,0.02859c-3.90098,0 -7.06334,-4.45137 -7.06334,-9.94242c0,-5.49105 3.16237,-9.94242 7.06334,-9.94242c0.39123,0 0.70557,0.13088 0.70557,0.13088l0.01858,2.83726c0,0 -0.35366,-0.00233 -0.70817,-0.00619c-3.71178,-0.04042 -5.14592,4.43542 -5.14592,6.98047z"></path><path d="M233.95034,173.02725c-0.35452,0.00386 -0.70817,0.00619 -0.70817,0.00619l0.01858,-2.83726c0,0 0.31434,-0.13088 0.70557,-0.13088c3.90098,0 7.06334,4.45137 7.06334,9.94242c0,5.49105 -3.16237,9.94242 -7.06334,9.94242c-0.18158,0 -0.46289,-0.02859 -0.46289,-0.02859l0.0759,-2.97828c0,0 0.18605,-0.03404 0.55976,-0.02482c2.72073,0.06709 4.95719,-4.2214 4.95719,-6.91072c0,-2.54505 -1.43414,-7.02089 -5.14592,-6.98047z" data-paper-data="{&quot;index&quot;:null}"></path></g><g><path d="M249.36429,174.38934c0,0 -0.92638,-1.4231 -2.37586,-1.4333c-1.19646,-0.00842 -1.83775,1.0163 -1.87018,2.20126c-0.0483,1.76501 2.99515,3.24376 2.99515,3.24376l-1.2674,2.15328c0,0 -3.56414,-1.54019 -3.64671,-5.1742c-0.03297,-1.45126 0.07062,-2.5739 0.71958,-3.52896c0.65573,-0.96504 1.31608,-1.75532 2.89961,-1.75532c2.95869,0 3.95934,2.51634 3.95934,2.51634z"></path><path d="M244.38231,184.03733c0,0 0.5437,2.3851 2.23379,2.39699c1.39506,0.00981 2.1428,-1.185 2.18061,-2.56664c0.02477,-2.40509 -3.39764,-4.25552 -3.39764,-4.25552l1.38311,-2.03737c0,0 4.15575,1.79584 4.25202,6.03306c0.03845,1.69215 -0.08235,3.00114 -0.83902,4.11473c-0.76458,1.12523 -1.53453,2.04669 -3.38091,2.04669c-3.4498,0 -4.3641,-5.1429 -4.3641,-5.1429z" data-paper-data="{&quot;index&quot;:null}"></path></g></g></g></svg>