<svg version="1.1" xmlns="http://www.w3.org/2000/svg" xmlns:xlink="http://www.w3.org/1999/xlink" width="29.22855" height="19.92482" viewBox="0,0,29.22855,19.92482"><g transform="translate(-225.38572,-170.0376)"><g data-paper-data="{&quot;isPaintingLayer&quot;:true}" fill="#30e600" fill-rule="nonzero" stroke="none" stroke-width="0" stroke-linecap="butt" stroke-linejoin="miter" stroke-miterlimit="10" stroke-dasharray="" stroke-dashoffset="0" style="mix-blend-mode: normal"><g><path d="M233.07068,189.95716l6.01472,-19.91956l-0.01675,5.4063l-4.20808,14.51326z"></path><path d="M236.09856,185.11283v-2.13819h5.76597v2.13819z"></path><path d="M243.19519,189.96242l-4.20808,-14.51326l0.09273,-5.38001l5.90523,19.89327z" data-paper-data="{&quot;index&quot;:null}"></path></g><g><path d="M246.85012,189.87133v-18.95016h1.72611v18.95016z"></path><path d="M252.51081,189.87745l-3.80487,-8.33878l1.96842,-0.02171l3.93991,8.33878z"></path><path d="M254.49034,176.34631c0,3.03721 -2.28616,5.49936 -4.66639,5.49936c-0.8967,0 -1.44472,0.03422 -1.44472,0.03422l0.01243,-2.11001l1.30464,-0.02953c0,0 1.09925,-0.14898 1.91104,-0.9166c0.96255,-0.91017 1.0489,-2.1867 1.04864,-2.48197c-0.00036,-0.39855 -0.35544,-1.69762 -0.94128,-2.33935c-0.58584,-0.64173 -2.04021,-0.92655 -2.04021,-0.92655l-1.3031,-0.01261l-0.00197,-2.20847c0,0 1.18151,-0.00787 1.81112,-0.00787c2.38024,0 4.3098,2.46215 4.3098,5.49936z"></path></g><g><path d="M225.38572,189.813v-18.89799h1.74915v18.89799z"></path><path d="M225.43074,173.5357v-2.6159h7.09612v2.6159z"></path><path d="M225.40647,180.7864v-2.6159h7.09612v2.6159z"></path></g></g></g></svg>