<svg version="1.1" xmlns="http://www.w3.org/2000/svg" xmlns:xlink="http://www.w3.org/1999/xlink" width="413.41954" height="55.83333" viewBox="0,0,413.41954,55.83333"><g transform="translate(-33.29023,-152.08333)"><g data-paper-data="{&quot;isPaintingLayer&quot;:true}" fill-rule="nonzero" stroke-linecap="butt" stroke-linejoin="miter" stroke-miterlimit="10" stroke-dasharray="" stroke-dashoffset="0" style="mix-blend-mode: normal"><g><path d="M35.79023,205.41667v-50.83333h408.41954v50.83333z" fill="#000000" stroke="#ffffff" stroke-width="5"></path><text transform="translate(44.61303,176.96169) scale(0.38172,0.38172)" font-size="40" xml:space="preserve" fill="#ffffff" fill-rule="nonzero" stroke="none" stroke-width="1" stroke-linecap="butt" stroke-linejoin="miter" stroke-miterlimit="10" stroke-dasharray="" stroke-dashoffset="0" font-family="&quot;ヒラギノ角ゴ Pro W3&quot;, &quot;Hiragino Kaku Gothic Pro&quot;, Osaka, &quot;メイリオ&quot;, Meiryo, &quot;ＭＳ Ｐゴシック&quot;, &quot;MS PGothic&quot;" font-weight="normal" text-anchor="start" style="mix-blend-mode: normal"><tspan x="0" dy="0">←をもう一度クリックするとコースリタイアとなります。</tspan><tspan x="0" dy="46.150000000000006px">(ここでリタイアすると今回のプレイは無効となります。)</tspan></text><path d="M51.3332,175.03485c0.55317,0.55263 0.55317,1.44954 0,2.0026c-0.55291,0.55343 -1.44957,0.55343 -2.003,0c-2.18355,-2.18357 -5.04055,-5.0407 -5.04055,-5.0407c-0.55303,-0.55291 -0.55303,-1.44968 0,-2.00286c0,0 3.31066,-3.31103 5.08123,-5.08134c0.55303,-0.55317 1.44957,-0.55303 2.003,0c0.55314,0.55303 0.55314,1.44968 0,2.00286c-2.18357,2.18343 -2.6569,2.66244 -2.6569,2.66244c0,0 7.05021,0.00292 9.55387,0.00292c0.78225,0 1.41633,0.63396 1.41633,1.41621c0,0.78211 -0.63408,1.41633 -1.41633,1.41633c-2.98628,0 -9.56155,-0.00278 -9.56155,-0.00278c0,0 0.85332,0.85321 2.62392,2.62432z" fill="#ffffff" stroke="#ffffff" stroke-width="0"></path></g></g></g></svg>