<svg version="1.1" xmlns="http://www.w3.org/2000/svg" xmlns:xlink="http://www.w3.org/1999/xlink" width="41.89826" height="35.0036" viewBox="0,0,41.89826,35.0036"><g transform="translate(-218.97619,-162.09739)"><g data-paper-data="{&quot;isPaintingLayer&quot;:true}" fill-rule="nonzero" stroke-width="0" stroke-linejoin="miter" stroke-miterlimit="10" stroke-dasharray="" stroke-dashoffset="0" style="mix-blend-mode: normal"><path d="M218.97619,180.65991l18.8277,-18.56252h23.07056v35.0036h-23.07056h-1.85625l-16.57368,-16.57368" fill-opacity="0.00784" fill="#000000" stroke="none" stroke-linecap="round"></path><path d="M238.88236,190.13201c1.38057,1.37921 1.38057,3.61768 0,4.99796c-1.37993,1.38122 -3.61775,1.38122 -4.99896,0c-5.44956,-5.44963 -12.5799,-12.58026 -12.5799,-12.58026c-1.38021,-1.37993 -1.38021,-3.61803 0,-4.99861c0,0 8.26253,-8.26346 12.68141,-12.68169c1.38021,-1.38057 3.61775,-1.38021 4.99896,0c1.3805,1.38021 1.3805,3.61803 0,4.99861c-5.44963,5.44928 -6.63093,6.64474 -6.63093,6.64474c0,0 17.59547,0.0073 23.84395,0.0073c1.95228,0 3.53479,1.58221 3.53479,3.5345c0,1.95193 -1.5825,3.53479 -3.53479,3.53479c-7.45296,0 -23.86313,-0.00694 -23.86313,-0.00694c0,0 2.12966,2.12938 6.54861,6.54961z" fill="#ffffff" stroke="#ffffff" stroke-linecap="butt"></path></g></g></svg>