<svg version="1.1" xmlns="http://www.w3.org/2000/svg" xmlns:xlink="http://www.w3.org/1999/xlink" width="49.51238" height="49.51238" viewBox="0,0,49.51238,49.51238"><g transform="translate(-215.24381,-155.24381)"><g data-paper-data="{&quot;isPaintingLayer&quot;:true}" fill-rule="nonzero" stroke-linejoin="miter" stroke-miterlimit="10" stroke-dasharray="" stroke-dashoffset="0" style="mix-blend-mode: normal"><path d="M215.24381,204.75619v-49.51238h49.51238v49.51238z" fill-opacity="0.01176" fill="#000000" stroke="none" stroke-width="0" stroke-linecap="butt"></path><g fill="#ffffff" stroke="none" stroke-linecap="butt"><text transform="translate(246.83259,189.42889) scale(1.05631,0.43416)" font-size="40" xml:space="preserve" fill="#ffffff" fill-rule="nonzero" stroke="none" stroke-width="1" stroke-linecap="butt" stroke-linejoin="miter" stroke-miterlimit="10" stroke-dasharray="" stroke-dashoffset="0" font-family="Serif" font-weight="normal" text-anchor="start" style="mix-blend-mode: normal"><tspan x="0" dy="0">l</tspan></text><path d="M250.08913,171.19226c0,-1.36689 1.10808,-2.47497 2.47497,-2.47497c1.36689,0 2.47498,1.10808 2.47498,2.47497c0,1.36689 -1.10808,2.47497 -2.47498,2.47497c-1.36689,0 -2.47497,-1.10808 -2.47497,-2.47497z" stroke-width="0"></path></g><g><path d="M216.83123,163.72755v29.90833" fill="none" stroke="#ffffff" stroke-width="2" stroke-linecap="round"></path><path d="M240.80251,166.67105c-0.27014,1.08054 -1.35068,0.81041 -1.35068,0.81041l-0.95081,-0.28057c-6.53294,-3.79094 -14.32794,-2.54082 -21.50271,-2.52662c0,0 -1.1138,0 -1.1138,-1.1138c0,-1.1138 1.1138,-1.11379 1.1138,-1.11379c7.67118,0.01709 15.59493,-1.13678 22.6079,2.82012l0.38588,0.05359c0,0 1.08054,0.27013 0.81041,1.35067z" fill="#ffffff" stroke="none" stroke-width="0.5" stroke-linecap="butt"></path><path d="M240.69057,196.80161c-0.27014,1.08054 -1.35067,0.81041 -1.35067,0.81041l-0.95081,-0.28058c-6.53294,-3.79094 -14.32794,-2.54082 -21.50271,-2.52662c0,0 -1.1138,0 -1.1138,-1.1138c0,-1.1138 1.1138,-1.11379 1.1138,-1.11379c7.67118,0.01709 15.59493,-1.13678 22.6079,2.82012l0.38588,0.05359c0,0 1.08055,0.27013 0.81041,1.35067z" fill="#ffffff" stroke="none" stroke-width="0.5" stroke-linecap="butt"></path><path d="M239.77711,196.53147v-29.90834" fill="none" stroke="#ffffff" stroke-width="2" stroke-linecap="round"></path><path d="M239.10677,166.89326c-0.27234,-1.08054 0.817,-1.35067 0.817,-1.35067l0.38902,-0.05359c7.07001,-3.95689 15.05822,-2.80302 22.79179,-2.82011c0,0 1.12285,-0.00001 1.12285,1.11379c0,1.1138 -1.12285,1.1138 -1.12285,1.1138c-7.23312,-0.0142 -15.09153,-1.26432 -21.6776,2.52662l-0.95854,0.28058c0,0 -1.08934,0.27013 -1.36167,-0.81041z" fill="#ffffff" stroke="none" stroke-width="0.5" stroke-linecap="butt"></path><path d="M239.64474,195.50608l0.38902,-0.05359c7.07001,-3.9569 15.05821,-2.80303 22.79178,-2.82012c0,0 1.12286,-0.00001 1.12286,1.11379c0,1.1138 -1.12286,1.1138 -1.12286,1.1138c-7.23312,-0.0142 -15.09153,-1.26432 -21.6776,2.52662l-0.95854,0.28057c0,0 -1.08933,0.27014 -1.36166,-0.8104c-0.27234,-1.08054 0.817,-1.35067 0.817,-1.35067z" fill="#ffffff" stroke="none" stroke-width="0.5" stroke-linecap="butt"></path><path d="M263.05716,163.83782v29.90833" fill="none" stroke="#ffffff" stroke-width="2" stroke-linecap="round"></path><path d="M240.59006,199.7014c-0.27014,1.08054 -1.35067,0.81041 -1.35067,0.81041l-0.95081,-0.28058c-6.53294,-3.79094 -14.32794,-2.54082 -21.50271,-2.52662c0,0 -1.1138,0 -1.1138,-1.1138c0,-1.1138 1.1138,-1.11379 1.1138,-1.11379c7.67118,0.01709 15.59493,-1.13678 22.6079,2.82012l0.38588,0.05359c0,0 1.08055,0.27013 0.81041,1.35067z" fill="#ffffff" stroke="none" stroke-width="0.5" stroke-linecap="butt"></path><path d="M239.84425,198.40586l0.38902,-0.05359c7.07001,-3.9569 15.05821,-2.80303 22.79178,-2.82012c0,0 1.12285,-0.00001 1.12285,1.11379c0,1.1138 -1.12285,1.1138 -1.12285,1.1138c-7.23312,-0.0142 -15.09153,-1.26432 -21.6776,2.52662l-0.95854,0.28057c0,0 -1.08933,0.27014 -1.36166,-0.8104c-0.27234,-1.08054 0.817,-1.35067 0.817,-1.35067z" fill="#ffffff" stroke="none" stroke-width="0.5" stroke-linecap="butt"></path></g></g></g></svg>