<svg version="1.1" xmlns="http://www.w3.org/2000/svg" xmlns:xlink="http://www.w3.org/1999/xlink" width="73.16682" height="105.09148" viewBox="0,0,73.16682,105.09148"><defs><linearGradient x1="206.6298" y1="171.00927" x2="206.6298" y2="180.54292" gradientUnits="userSpaceOnUse" id="color-1"><stop offset="0" stop-color="#ffaafc"></stop><stop offset="1" stop-color="#aab8ff"></stop></linearGradient><linearGradient x1="207.09522" y1="178.25532" x2="207.09522" y2="188.80856" gradientUnits="userSpaceOnUse" id="color-2"><stop offset="0" stop-color="#ffaafc"></stop><stop offset="1" stop-color="#aab8ff"></stop></linearGradient><linearGradient x1="204.3411" y1="171.05386" x2="204.3411" y2="188.79543" gradientUnits="userSpaceOnUse" id="color-3"><stop offset="0" stop-color="#ffaafc"></stop><stop offset="1" stop-color="#aab8ff"></stop></linearGradient><linearGradient x1="214.05868" y1="171.1839" x2="214.05868" y2="188.85186" gradientUnits="userSpaceOnUse" id="color-4"><stop offset="0" stop-color="#ffaafc"></stop><stop offset="1" stop-color="#aab8ff"></stop></linearGradient><linearGradient x1="217.73856" y1="181.06277" x2="217.73856" y2="188.85757" gradientUnits="userSpaceOnUse" id="color-5"><stop offset="0" stop-color="#ffaafc"></stop><stop offset="1" stop-color="#aab8ff"></stop></linearGradient><linearGradient x1="217.52391" y1="171.11469" x2="217.52391" y2="181.40114" gradientUnits="userSpaceOnUse" id="color-6"><stop offset="0" stop-color="#ffaafc"></stop><stop offset="1" stop-color="#aab8ff"></stop></linearGradient><linearGradient x1="223.3685" y1="171.07" x2="223.3685" y2="188.87355" gradientUnits="userSpaceOnUse" id="color-7"><stop offset="0" stop-color="#ffaafc"></stop><stop offset="1" stop-color="#aab8ff"></stop></linearGradient><linearGradient x1="235.15991" y1="170.91076" x2="235.15991" y2="188.71431" gradientUnits="userSpaceOnUse" id="color-8"><stop offset="0" stop-color="#ffaafc"></stop><stop offset="1" stop-color="#aab8ff"></stop></linearGradient><linearGradient x1="237.05716" y1="186.38513" x2="237.05716" y2="188.73708" gradientUnits="userSpaceOnUse" id="color-9"><stop offset="0" stop-color="#ffaafc"></stop><stop offset="1" stop-color="#aab8ff"></stop></linearGradient><linearGradient x1="227.78681" y1="170.92952" x2="227.78681" y2="188.73307" gradientUnits="userSpaceOnUse" id="color-10"><stop offset="0" stop-color="#ffaafc"></stop><stop offset="1" stop-color="#aab8ff"></stop></linearGradient><linearGradient x1="229.68406" y1="186.40389" x2="229.68406" y2="188.75584" gradientUnits="userSpaceOnUse" id="color-11"><stop offset="0" stop-color="#ffaafc"></stop><stop offset="1" stop-color="#aab8ff"></stop></linearGradient><linearGradient x1="242.29945" y1="170.93732" x2="242.29945" y2="188.74087" gradientUnits="userSpaceOnUse" id="color-12"><stop offset="0" stop-color="#ffaafc"></stop><stop offset="1" stop-color="#aab8ff"></stop></linearGradient><linearGradient x1="262.41576" y1="170.45019" x2="262.41576" y2="189.74933" gradientUnits="userSpaceOnUse" id="color-13"><stop offset="0" stop-color="#ffaafc"></stop><stop offset="1" stop-color="#aab8ff"></stop></linearGradient><linearGradient x1="273.04127" y1="170.91399" x2="273.04127" y2="173.21408" gradientUnits="userSpaceOnUse" id="color-14"><stop offset="0" stop-color="#ffaafc"></stop><stop offset="1" stop-color="#aab8ff"></stop></linearGradient><linearGradient x1="273.16197" y1="170.88338" x2="273.16197" y2="188.68693" gradientUnits="userSpaceOnUse" id="color-15"><stop offset="0" stop-color="#ffaafc"></stop><stop offset="1" stop-color="#aab8ff"></stop></linearGradient><linearGradient x1="247.42458" y1="170.25067" x2="247.42458" y2="188.81019" gradientUnits="userSpaceOnUse" id="color-16"><stop offset="0" stop-color="#ffaafc"></stop><stop offset="1" stop-color="#aab8ff"></stop></linearGradient><linearGradient x1="250.12985" y1="182.30442" x2="250.12985" y2="184.29662" gradientUnits="userSpaceOnUse" id="color-17"><stop offset="0" stop-color="#ffaafc"></stop><stop offset="1" stop-color="#aab8ff"></stop></linearGradient><linearGradient x1="252.92926" y1="170.28006" x2="252.92926" y2="188.81509" gradientUnits="userSpaceOnUse" id="color-18"><stop offset="0" stop-color="#ffaafc"></stop><stop offset="1" stop-color="#aab8ff"></stop></linearGradient></defs><g transform="translate(-203.41659,-170.25067)"><g stroke="none" stroke-width="0" stroke-miterlimit="10"><g fill="#ffaafc"><g><path d="M209.83595,196.48447c0,2.5752 -2.20741,5.0825 -3.71019,5.0988c-1.99175,0.02161 -2.68115,-0.00401 -2.68115,-0.00401l-0.00036,-2.29459c0,0 0.84653,0.04253 2.64398,-0.00834c0.51894,-0.01469 1.84683,-1.05577 1.85694,-2.7297c0.01011,-1.67466 -1.39617,-2.18534 -1.85802,-2.18545c-1.24324,-0.00031 -2.65652,0.02079 -2.65652,0.02079l-0.00696,-2.31555c0,0 2.18764,-0.02029 2.93033,0.00323c1.82955,0.05796 3.48195,1.75652 3.48195,4.41482z"></path><path d="M210.77294,204.65114c-0.05785,3.4169 -2.49461,5.21051 -3.64139,5.20642c-2.67033,-0.00953 -3.69101,-0.00375 -3.69101,-0.00375l-0.00041,-2.22409c0,0 0.53421,-0.02215 2.58867,-0.01791c1.75416,0.00361 2.84185,-1.81848 2.8534,-2.95179c0.01155,-1.85299 -1.89473,-2.80744 -2.42241,-2.80757c-1.42047,-0.00034 -3.03521,0.023 -3.03521,0.023l-0.00796,-2.56212c0,0 2.4995,-0.02246 3.34806,0.00358c2.09036,0.06413 4.05805,2.39328 4.00826,5.33424z"></path><path d="M203.42704,209.84444v-17.74158h1.82817v17.74158z"></path></g><g><path d="M213.25404,209.90087v-17.66796h1.60932v17.66796z"></path><path d="M218.53172,209.90658l-3.54743,-7.77456l1.83524,-0.02023l3.67334,7.77456z"></path><path d="M220.3773,197.29097c0,2.83171 -2.13147,5.12727 -4.35066,5.12727c-0.83603,0 -1.34697,0.03191 -1.34697,0.03191l0.01159,-1.96725l1.21636,-0.02753c0,0 1.02488,-0.1389 1.78174,-0.85458c0.89742,-0.84858 0.97793,-2.03874 0.97768,-2.31404c-0.00033,-0.37158 -0.33139,-1.58275 -0.8776,-2.18106c-0.54621,-0.59831 -1.90216,-0.86386 -1.90216,-0.86386l-1.21493,-0.01176l-0.00183,-2.05904c0,0 1.10156,-0.00733 1.68857,-0.00733c2.21919,0 4.01819,2.29556 4.01819,5.12727z"></path></g><path d="M222.56386,209.92256v-17.80355h1.60932v17.80355z"></path><g><path d="M234.35527,209.76332v-17.80355h1.60932v17.80355z"></path><path d="M234.35524,209.78609v-2.35196h5.4039v2.35196z"></path></g><g><path d="M226.98217,209.78208v-17.80355h1.60932v17.80355z"></path><path d="M226.98214,209.80485v-2.35196h5.4039v2.35196z"></path></g><path d="M241.49481,209.78988v-17.80355h1.60932v17.80355z"></path><path d="M257.26947,209.70561v-18.20641l8.6916,13.33888l0.08573,-12.65992l1.51526,0.01354v18.60664l-8.67937,-13.35829l-0.03421,12.26941z"></path><g><path d="M269.49915,194.26309v-2.30009h7.08426v2.30009z"></path><path d="M272.35732,209.73594v-17.80355h1.60932v17.80355z"></path></g><g><path d="M244.62257,209.8592l5.60405,-18.55952l-0.01562,5.03717l-3.92077,13.52235z"></path><path d="M247.44374,205.34563v-1.9922h5.37229v1.9922z"></path><path d="M254.05584,209.8641l-3.92077,-13.52235l0.0864,-5.01269l5.50204,18.53503z"></path></g></g><g fill="#f5ffab"><path d="M203.55271,230.47753v-18.55184l8.8565,13.59196l0.08736,-12.90011l1.54401,0.0138v18.95965l-8.84404,-13.61174l-0.03485,12.50219z"></path><g><path d="M223.87085,230.6256l5.7302,-18.97731l-0.01596,5.15057l-4.00903,13.82674z"></path><path d="M226.75551,226.01043v-2.03704h5.49322v2.03704z"></path><path d="M233.51645,230.63062l-4.00903,-13.82674l0.08835,-5.12553l5.62589,18.95227z"></path></g><g><path d="M216.4476,230.48827v-18.00407h1.66642v18.00407z"></path><path d="M216.49049,214.98093v-2.49216h6.76046v2.49216z"></path><path d="M216.46737,221.88866v-2.49216h6.76046v2.49216z"></path><path d="M216.46401,230.51716v-2.49216h6.76046v2.49216z"></path></g><g><path d="M236.99849,230.54384v-18.05377h1.64446v18.05377z"></path><path d="M242.39142,230.54967l-3.6249,-7.94433l1.87531,-0.02068l3.75355,7.94433z"></path><path d="M244.27731,217.65859c0,2.89354 -2.17802,5.23923 -4.44566,5.23923c-0.85429,0 -1.37638,0.0326 -1.37638,0.0326l0.01184,-2.01021l1.24293,-0.02813c0,0 1.04726,-0.14194 1.82064,-0.87324c0.91701,-0.86711 0.99929,-2.08326 0.99903,-2.36457c-0.00034,-0.3797 -0.33862,-1.61732 -0.89675,-2.22869c-0.55813,-0.61137 -1.9437,-0.88272 -1.9437,-0.88272l-1.24146,-0.01202l-0.00187,-2.10401c0,0 1.12562,-0.0075 1.72545,-0.0075c2.26765,0 4.10593,2.34569 4.10593,5.23923z"></path></g></g><g fill="#30e600"><g><path d="M211.54328,253.58258l6.01472,-19.91956l-0.01675,5.4063l-4.20808,14.51326z"></path><path d="M214.57116,248.73825v-2.13819h5.76597v2.13819z"></path><path d="M221.66779,253.58784l-4.20808,-14.51326l0.09273,-5.38001l5.90523,19.89327z"></path></g><g><path d="M225.32272,253.49675v-18.95016h1.72611v18.95016z"></path><path d="M230.98341,253.50287l-3.80487,-8.33878l1.96842,-0.02171l3.93991,8.33878z"></path><path d="M232.96294,239.97173c0,3.03721 -2.28616,5.49936 -4.66639,5.49936c-0.8967,0 -1.44472,0.03422 -1.44472,0.03422l0.01243,-2.11001l1.30464,-0.02953c0,0 1.09925,-0.14898 1.91104,-0.9166c0.96255,-0.91017 1.0489,-2.1867 1.04864,-2.48197c-0.00036,-0.39855 -0.35544,-1.69762 -0.94128,-2.33935c-0.58584,-0.64173 -2.04021,-0.92655 -2.04021,-0.92655l-1.3031,-0.01261l-0.00197,-2.20847c0,0 1.18151,-0.00787 1.81112,-0.00787c2.38024,0 4.3098,2.46215 4.3098,5.49936z"></path></g><g><path d="M203.85832,253.43842v-18.89799h1.74915v18.89799z"></path><path d="M203.90334,237.16113v-2.6159h7.09612v2.6159z"></path><path d="M203.87907,244.41183v-2.6159h7.09612v2.6159z"></path></g></g><g fill="#a0aaca"><g><path d="M203.95691,274.62276v-18.57694h1.67923v18.57694z"></path><path d="M203.95687,274.64652v-2.45412h5.63864v2.45412z"></path></g><g><path d="M236.12085,258.42962v-2.4h7.392v2.4z"></path><path d="M239.10318,274.57461v-18.57694h1.67923v18.57694z"></path></g><g><path d="M212.70243,265.38432c0,2.68933 2.23647,6.97781 4.95719,6.91073c0.37371,-0.00922 0.55976,0.02482 0.55976,0.02482l0.0759,2.97828c0,0 -0.28132,0.02859 -0.46289,0.02859c-3.90098,0 -7.06334,-4.45137 -7.06334,-9.94242c0,-5.49105 3.16237,-9.94242 7.06334,-9.94242c0.39123,0 0.70557,0.13088 0.70557,0.13088l0.01858,2.83726c0,0 -0.35366,-0.00233 -0.70817,-0.00619c-3.71178,-0.04042 -5.14592,4.43542 -5.14592,6.98047z"></path><path d="M217.68516,258.41927c-0.35452,0.00386 -0.70817,0.00619 -0.70817,0.00619l0.01858,-2.83726c0,0 0.31434,-0.13088 0.70557,-0.13088c3.90098,0 7.06334,4.45137 7.06334,9.94242c0,5.49105 -3.16237,9.94242 -7.06334,9.94242c-0.18158,0 -0.46289,-0.02859 -0.46289,-0.02859l0.0759,-2.97828c0,0 0.18605,-0.03404 0.55976,-0.02482c2.72073,0.06709 4.95719,-4.2214 4.95719,-6.91072c0,-2.54505 -1.43414,-7.02089 -5.14592,-6.98047z"></path></g><g><path d="M233.09911,259.78136c0,0 -0.92638,-1.4231 -2.37586,-1.4333c-1.19646,-0.00842 -1.83775,1.0163 -1.87018,2.20126c-0.0483,1.76501 2.99515,3.24376 2.99515,3.24376l-1.2674,2.15328c0,0 -3.56414,-1.54019 -3.64671,-5.1742c-0.03297,-1.45126 0.07062,-2.5739 0.71958,-3.52896c0.65573,-0.96504 1.31608,-1.75532 2.89961,-1.75532c2.95869,0 3.95934,2.51634 3.95934,2.51634z"></path><path d="M228.11716,269.42935c0,0 0.5437,2.3851 2.23379,2.39699c1.39506,0.00981 2.1428,-1.185 2.18061,-2.56664c0.02477,-2.40509 -3.39764,-4.25552 -3.39764,-4.25552l1.38311,-2.03737c0,0 4.15575,1.79584 4.25202,6.03306c0.03845,1.69215 -0.08235,3.00114 -0.83902,4.11473c-0.76458,1.12523 -1.53453,2.04669 -3.38091,2.04669c-3.4498,0 -4.3641,-5.1429 -4.3641,-5.1429z"></path></g></g><g><g><path d="M209.83594,175.43546c0,2.5752 -2.20741,5.0825 -3.71019,5.0988c-1.99175,0.02161 -2.68115,-0.00401 -2.68115,-0.00401l-0.00036,-2.29459c0,0 0.84653,0.04253 2.64398,-0.00834c0.51894,-0.01469 1.84683,-1.05577 1.85694,-2.7297c0.01011,-1.67466 -1.39617,-2.18534 -1.85802,-2.18545c-1.24324,-0.00031 -2.65652,0.02079 -2.65652,0.02079l-0.00696,-2.31555c0,0 2.18764,-0.02029 2.93033,0.00323c1.82955,0.05796 3.48195,1.75652 3.48195,4.41482z" fill="url(#color-1)"></path><path d="M210.77291,183.60213c-0.05785,3.4169 -2.49461,5.21051 -3.64139,5.20642c-2.67033,-0.00953 -3.69101,-0.00375 -3.69101,-0.00375l-0.00041,-2.22409c0,0 0.53421,-0.02215 2.58867,-0.01791c1.75416,0.00361 2.84185,-1.81848 2.8534,-2.95179c0.01155,-1.85299 -1.89473,-2.80744 -2.42241,-2.80757c-1.42047,-0.00034 -3.03521,0.023 -3.03521,0.023l-0.00796,-2.56212c0,0 2.4995,-0.02246 3.34806,0.00358c2.09036,0.06413 4.05805,2.39328 4.00826,5.33424z" fill="url(#color-2)"></path><path d="M203.42701,188.79543v-17.74158h1.82817v17.74158z" fill="url(#color-3)"></path></g><g><path d="M213.25402,188.85186v-17.66796h1.60932v17.66796z" fill="url(#color-4)"></path><path d="M218.5317,188.85757l-3.54743,-7.77456l1.83524,-0.02023l3.67334,7.77456z" fill="url(#color-5)"></path><path d="M220.37729,176.24196c0,2.83171 -2.13147,5.12727 -4.35066,5.12727c-0.83603,0 -1.34697,0.03191 -1.34697,0.03191l0.01159,-1.96725l1.21636,-0.02753c0,0 1.02488,-0.1389 1.78174,-0.85458c0.89742,-0.84858 0.97793,-2.03874 0.97768,-2.31404c-0.00033,-0.37158 -0.33139,-1.58275 -0.8776,-2.18106c-0.54621,-0.59831 -1.90216,-0.86386 -1.90216,-0.86386l-1.21493,-0.01176l-0.00183,-2.05904c0,0 1.10156,-0.00733 1.68857,-0.00733c2.21919,0 4.01819,2.29556 4.01819,5.12727z" fill="url(#color-6)"></path></g><path d="M222.56384,188.87355v-17.80355h1.60932v17.80355z" fill="url(#color-7)"></path><g><path d="M234.35525,188.71431v-17.80355h1.60932v17.80355z" fill="url(#color-8)"></path><path d="M234.35521,188.73708v-2.35196h5.4039v2.35196z" fill="url(#color-9)"></path></g><g><path d="M226.98215,188.73307v-17.80355h1.60932v17.80355z" fill="url(#color-10)"></path><path d="M226.98211,188.75584v-2.35196h5.4039v2.35196z" fill="url(#color-11)"></path></g><path d="M241.49479,188.74087v-17.80355h1.60932v17.80355z" fill="url(#color-12)"></path><path d="M257.26946,188.6566v-18.20641l8.6916,13.33888l0.08573,-12.65992l1.51526,0.01354v18.60664l-8.67937,-13.35829l-0.03421,12.26941z" fill="url(#color-13)"></path><g><path d="M269.49914,173.21408v-2.30009h7.08426v2.30009z" fill="url(#color-14)"></path><path d="M272.35731,188.68693v-17.80355h1.60932v17.80355z" fill="url(#color-15)"></path></g><g><path d="M244.62256,188.81019l5.60405,-18.55952l-0.01562,5.03717l-3.92077,13.52235z" fill="url(#color-16)"></path><path d="M247.44371,184.29662v-1.9922h5.37229v1.9922z" fill="url(#color-17)"></path><path d="M254.05581,188.81509l-3.92077,-13.52235l0.0864,-5.01269l5.50204,18.53503z" fill="url(#color-18)"></path></g></g></g></g></svg>