<svg version="1.1" xmlns="http://www.w3.org/2000/svg" xmlns:xlink="http://www.w3.org/1999/xlink" width="402.12367" height="238.3598" viewBox="0,0,402.12367,238.3598"><defs><linearGradient x1="272.84073" y1="104.12916" x2="272.84073" y2="111.89242" gradientUnits="userSpaceOnUse" id="color-1"><stop offset="0" stop-color="#ffaafc"></stop><stop offset="1" stop-color="#aab8ff"></stop></linearGradient><linearGradient x1="273.2197" y1="110.02961" x2="273.2197" y2="118.62312" gradientUnits="userSpaceOnUse" id="color-2"><stop offset="0" stop-color="#ffaafc"></stop><stop offset="1" stop-color="#aab8ff"></stop></linearGradient><linearGradient x1="270.97703" y1="104.16547" x2="270.97703" y2="118.61243" gradientUnits="userSpaceOnUse" id="color-3"><stop offset="0" stop-color="#ffaafc"></stop><stop offset="1" stop-color="#aab8ff"></stop></linearGradient><linearGradient x1="278.89006" y1="104.27136" x2="278.89006" y2="118.65838" gradientUnits="userSpaceOnUse" id="color-4"><stop offset="0" stop-color="#ffaafc"></stop><stop offset="1" stop-color="#aab8ff"></stop></linearGradient><linearGradient x1="281.88659" y1="112.31573" x2="281.88659" y2="118.66303" gradientUnits="userSpaceOnUse" id="color-5"><stop offset="0" stop-color="#ffaafc"></stop><stop offset="1" stop-color="#aab8ff"></stop></linearGradient><linearGradient x1="281.71181" y1="104.215" x2="281.71181" y2="112.59126" gradientUnits="userSpaceOnUse" id="color-6"><stop offset="0" stop-color="#ffaafc"></stop><stop offset="1" stop-color="#aab8ff"></stop></linearGradient><linearGradient x1="286.47103" y1="104.1786" x2="286.47103" y2="118.67604" gradientUnits="userSpaceOnUse" id="color-7"><stop offset="0" stop-color="#ffaafc"></stop><stop offset="1" stop-color="#aab8ff"></stop></linearGradient><linearGradient x1="296.07281" y1="104.04894" x2="296.07281" y2="118.54638" gradientUnits="userSpaceOnUse" id="color-8"><stop offset="0" stop-color="#ffaafc"></stop><stop offset="1" stop-color="#aab8ff"></stop></linearGradient><linearGradient x1="297.61771" y1="116.64972" x2="297.61771" y2="118.56492" gradientUnits="userSpaceOnUse" id="color-9"><stop offset="0" stop-color="#ffaafc"></stop><stop offset="1" stop-color="#aab8ff"></stop></linearGradient><linearGradient x1="290.06889" y1="104.06421" x2="290.06889" y2="118.56165" gradientUnits="userSpaceOnUse" id="color-10"><stop offset="0" stop-color="#ffaafc"></stop><stop offset="1" stop-color="#aab8ff"></stop></linearGradient><linearGradient x1="291.61382" y1="116.665" x2="291.61382" y2="118.58019" gradientUnits="userSpaceOnUse" id="color-11"><stop offset="0" stop-color="#ffaafc"></stop><stop offset="1" stop-color="#aab8ff"></stop></linearGradient><linearGradient x1="301.88651" y1="104.07056" x2="301.88651" y2="118.56801" gradientUnits="userSpaceOnUse" id="color-12"><stop offset="0" stop-color="#ffaafc"></stop><stop offset="1" stop-color="#aab8ff"></stop></linearGradient><linearGradient x1="318.26725" y1="103.67389" x2="318.26725" y2="119.38919" gradientUnits="userSpaceOnUse" id="color-13"><stop offset="0" stop-color="#ffaafc"></stop><stop offset="1" stop-color="#aab8ff"></stop></linearGradient><linearGradient x1="326.91962" y1="104.05158" x2="326.91962" y2="105.92453" gradientUnits="userSpaceOnUse" id="color-14"><stop offset="0" stop-color="#ffaafc"></stop><stop offset="1" stop-color="#aab8ff"></stop></linearGradient><linearGradient x1="327.01788" y1="104.02664" x2="327.01788" y2="118.52409" gradientUnits="userSpaceOnUse" id="color-15"><stop offset="0" stop-color="#ffaafc"></stop><stop offset="1" stop-color="#aab8ff"></stop></linearGradient><linearGradient x1="306.05993" y1="103.51142" x2="306.05993" y2="118.62446" gradientUnits="userSpaceOnUse" id="color-16"><stop offset="0" stop-color="#ffaafc"></stop><stop offset="1" stop-color="#aab8ff"></stop></linearGradient><linearGradient x1="308.26283" y1="113.3268" x2="308.26283" y2="114.94905" gradientUnits="userSpaceOnUse" id="color-17"><stop offset="0" stop-color="#ffaafc"></stop><stop offset="1" stop-color="#aab8ff"></stop></linearGradient><linearGradient x1="310.54239" y1="103.53537" x2="310.54239" y2="118.62845" gradientUnits="userSpaceOnUse" id="color-18"><stop offset="0" stop-color="#ffaafc"></stop><stop offset="1" stop-color="#aab8ff"></stop></linearGradient></defs><g transform="translate(-22.91011,-103.51142)"><g stroke-miterlimit="10"><g fill="#a0aaca" stroke="none" stroke-width="0"><g><path d="M270.33377,208.8149v-15.12721h1.3674v15.12721z"></path><path d="M270.33373,208.83426v-1.99839h4.59155v1.99839z"></path></g><g><path d="M296.52486,195.62882v-1.95432h6.01931v1.95432z"></path><path d="M298.95339,208.7757v-15.12721h1.3674v15.12721z"></path></g><g><path d="M277.45525,201.29204c0,2.18992 1.82116,5.68203 4.03664,5.62741c0.30431,-0.00751 0.45581,0.02021 0.45581,0.02021l0.06181,2.42521c0,0 -0.22908,0.02328 -0.37693,0.02328c-3.17657,0 -5.75168,-3.62475 -5.75168,-8.09612c0,-4.47136 2.57512,-8.09612 5.75168,-8.09612c0.31858,0 0.57455,0.10658 0.57455,0.10658l0.01513,2.31038c0,0 -0.28799,-0.0019 -0.57666,-0.00504c-3.0225,-0.03291 -4.19032,3.61176 -4.19032,5.6842z"></path><path d="M281.51268,195.6204c-0.28869,0.00314 -0.57666,0.00504 -0.57666,0.00504l0.01513,-2.31038c0,0 0.25597,-0.10658 0.57455,-0.10658c3.17657,0 5.75168,3.62475 5.75168,8.09612c0,4.47136 -2.57512,8.09612 -5.75168,8.09612c-0.14786,0 -0.37693,-0.02328 -0.37693,-0.02328l0.06181,-2.42521c0,0 0.1515,-0.02772 0.45581,-0.02021c2.21549,0.05463 4.03664,-3.43749 4.03664,-5.6274c0,-2.07244 -1.16782,-5.71711 -4.19032,-5.6842z"></path></g><g><path d="M294.06426,196.72955c0,0 -0.75435,-1.15883 -1.93466,-1.16714c-0.97428,-0.00686 -1.49648,0.82757 -1.52289,1.79249c-0.03933,1.43725 2.43895,2.6414 2.43895,2.6414l-1.03204,1.75342c0,0 -2.90228,-1.25418 -2.96952,-4.21335c-0.02685,-1.18176 0.05751,-2.09593 0.58595,-2.87363c0.53396,-0.78583 1.07168,-1.42936 2.36115,-1.42936c2.40926,0 3.22409,2.04906 3.22409,2.04906z"></path><path d="M290.00747,204.58591c0,0 0.44274,1.94219 1.81898,1.95187c1.136,0.00799 1.74488,-0.96495 1.77567,-2.09002c0.02017,-1.95847 -2.7667,-3.46527 -2.7667,-3.46527l1.12627,-1.65903c0,0 3.38403,1.46235 3.46242,4.91272c0.03131,1.37792 -0.06706,2.44383 -0.68321,3.35063c-0.6226,0.91628 -1.24957,1.66662 -2.75308,1.66662c-2.80917,0 -3.55369,-4.18787 -3.55369,-4.18787z"></path></g></g><g fill="#ffaafc" stroke="none" stroke-width="0"><g><path d="M275.4515,137.47313c0,2.09699 -1.79749,4.13868 -3.02121,4.15196c-1.62188,0.0176 -2.18326,-0.00327 -2.18326,-0.00327l-0.00029,-1.86849c0,0 0.68933,0.03463 2.15299,-0.00679c0.42257,-0.01196 1.50387,-0.85971 1.51211,-2.2228c0.00823,-1.36368 -1.1369,-1.77952 -1.51299,-1.77961c-1.01237,-0.00025 -2.16321,0.01693 -2.16321,0.01693l-0.00567,-1.88555c0,0 1.7814,-0.01652 2.38617,0.00263c1.4898,0.0472 2.83535,1.43034 2.83535,3.59499z"></path><path d="M276.21449,144.12327c-0.04711,2.78238 -2.03136,4.24292 -2.96519,4.23959c-2.17445,-0.00776 -3.00559,-0.00305 -3.00559,-0.00305l-0.00033,-1.81108c0,0 0.43501,-0.01804 2.10796,-0.01458c1.42841,0.00294 2.31412,-1.48079 2.32352,-2.40364c0.00941,-1.50889 -1.54288,-2.2861 -1.97257,-2.28621c-1.15669,-0.00028 -2.47157,0.01873 -2.47157,0.01873l-0.00648,-2.08634c0,0 2.03534,-0.01829 2.72633,0.00292c1.70218,0.05222 3.30447,1.94885 3.26393,4.34367z"></path><path d="M270.23269,148.35216v-14.44698h1.48868v14.44698z"></path></g><g><path d="M278.23483,148.3981v-14.38703h1.31047v14.38703z"></path><path d="M282.53246,148.40275l-2.88867,-6.33083l1.49444,-0.01647l2.9912,6.33083z"></path><path d="M284.03532,138.12984c0,2.30586 -1.73566,4.17514 -3.54274,4.17514c-0.68078,0 -1.09684,0.02598 -1.09684,0.02598l0.00944,-1.60193l0.99048,-0.02242c0,0 0.83456,-0.11311 1.45087,-0.69588c0.73077,-0.691 0.79633,-1.66015 0.79613,-1.88432c-0.00027,-0.30258 -0.26985,-1.28883 -0.71463,-1.77604c-0.44478,-0.4872 -1.54893,-0.70344 -1.54893,-0.70344l-0.98932,-0.00958l-0.00149,-1.67668c0,0 0.897,-0.00597 1.375,-0.00597c1.80709,0 3.27201,1.86928 3.27201,4.17514z"></path></g><path d="M285.81583,148.41574v-14.49744h1.31047v14.49744z"></path><g><path d="M295.41758,148.28609v-14.49744h1.31047v14.49744z"></path><path d="M295.41757,148.30462v-1.9152h4.4004v1.9152z"></path></g><g><path d="M289.41364,148.30137v-14.49744h1.31047v14.49744z"></path><path d="M289.41364,148.31992v-1.9152h4.4004v1.9152z"></path></g><path d="M301.23131,148.30772v-14.49744h1.31047v14.49744z"></path><path d="M314.0766,148.23908v-14.82549l7.07757,10.86186l0.06981,-10.30898l1.23388,0.01103v15.1514l-7.06761,-10.87766l-0.02786,9.99099z"></path><g><path d="M324.03524,135.66422v-1.87296h5.76872v1.87296z"></path><path d="M326.36268,148.26379v-14.49744h1.31047v14.49744z"></path></g><g><path d="M303.77825,148.36417l4.56338,-15.11303l-0.01272,4.10177l-3.19268,11.01126z"></path><path d="M306.07553,144.68875v-1.62225h4.37466v1.62225z"></path><path d="M311.45975,148.36817l-3.19268,-11.01126l0.07036,-4.08184l4.48031,15.09308z"></path></g></g><g fill="#f5ffab" stroke="none" stroke-width="0"><path d="M270.33502,179.07486v-15.10677l7.21185,11.06794l0.07114,-10.50457l1.25729,0.01124v15.43885l-7.20171,-11.08405l-0.02838,10.18054z"></path><g><path d="M286.88012,179.19544l4.6661,-15.45323l-0.013,4.19411l-3.26455,11.25912z"></path><path d="M289.22909,175.43729v-1.65876h4.47313v1.65876z"></path><path d="M294.73453,179.19952l-3.26455,-11.25912l0.07194,-4.17372l4.58116,15.43284z"></path></g><g><path d="M280.83537,179.08361v-14.66072h1.35697v14.66072z"></path><path d="M280.87029,166.45595v-2.02937h5.50505v2.02937z"></path><path d="M280.85147,172.08093v-2.02937h5.50505v2.02937z"></path><path d="M280.84872,179.10711v-2.02937h5.50505v2.02937z"></path></g><g><path d="M297.56997,179.12886v-14.70119h1.33908v14.70119z"></path><path d="M301.96143,179.13361l-2.95176,-6.46907l1.52707,-0.01684l3.05652,6.46907z"></path><path d="M303.4971,168.63639c0,2.35621 -1.77356,4.26631 -3.6201,4.26631c-0.69565,0 -1.12079,0.02655 -1.12079,0.02655l0.00964,-1.63691l1.01212,-0.02291c0,0 0.85278,-0.11558 1.48255,-0.71108c0.74672,-0.70609 0.81372,-1.6964 0.81351,-1.92547c-0.00028,-0.30919 -0.27574,-1.31698 -0.73022,-1.81482c-0.45449,-0.49784 -1.58276,-0.7188 -1.58276,-0.7188l-1.01092,-0.00979l-0.00152,-1.7133c0,0 0.91659,-0.00611 1.40503,-0.00611c1.84655,0 3.34346,1.9101 3.34346,4.26631z"></path></g></g><g stroke="none" stroke-width="0"><g><path d="M275.45148,107.7334c0,2.09699 -1.79749,4.13868 -3.02121,4.15196c-1.62188,0.0176 -2.18326,-0.00327 -2.18326,-0.00327l-0.00029,-1.86849c0,0 0.68933,0.03463 2.15299,-0.00679c0.42257,-0.01196 1.50387,-0.85971 1.51211,-2.2228c0.00823,-1.36368 -1.1369,-1.77952 -1.51299,-1.77961c-1.01237,-0.00025 -2.16321,0.01693 -2.16321,0.01693l-0.00567,-1.88555c0,0 1.7814,-0.01652 2.38617,0.00263c1.4898,0.0472 2.83535,1.43034 2.83535,3.59499z" fill="url(#color-1)"></path><path d="M276.21447,114.38352c-0.04711,2.78238 -2.03136,4.24292 -2.96519,4.23959c-2.17445,-0.00776 -3.00559,-0.00305 -3.00559,-0.00305l-0.00033,-1.81108c0,0 0.43501,-0.01804 2.10796,-0.01458c1.42841,0.00294 2.31412,-1.48079 2.32352,-2.40364c0.00941,-1.50889 -1.54288,-2.2861 -1.97257,-2.28621c-1.15669,-0.00028 -2.47157,0.01873 -2.47157,0.01873l-0.00648,-2.08634c0,0 2.03534,-0.01829 2.72633,0.00292c1.70218,0.05222 3.30447,1.94885 3.26393,4.34367z" fill="url(#color-2)"></path><path d="M270.23267,118.61243v-14.44698h1.48868v14.44698z" fill="url(#color-3)"></path></g><g><path d="M278.23482,118.65838v-14.38703h1.31047v14.38703z" fill="url(#color-4)"></path><path d="M282.53244,118.66303l-2.88867,-6.33083l1.49444,-0.01647l2.9912,6.33083z" fill="url(#color-5)"></path><path d="M284.03532,108.39014c0,2.30586 -1.73566,4.17514 -3.54274,4.17514c-0.68078,0 -1.09684,0.02598 -1.09684,0.02598l0.00944,-1.60193l0.99048,-0.02242c0,0 0.83456,-0.11311 1.45087,-0.69588c0.73077,-0.691 0.79633,-1.66015 0.79613,-1.88432c-0.00027,-0.30258 -0.26985,-1.28883 -0.71463,-1.77604c-0.44478,-0.4872 -1.54893,-0.70344 -1.54893,-0.70344l-0.98932,-0.00958l-0.00149,-1.67668c0,0 0.897,-0.00597 1.375,-0.00597c1.80709,0 3.27201,1.86928 3.27201,4.17514z" fill="url(#color-6)"></path></g><path d="M285.81583,118.67604v-14.49744h1.31047v14.49744z" fill="url(#color-7)"></path><g><path d="M295.41757,118.54638v-14.49744h1.31047v14.49744z" fill="url(#color-8)"></path><path d="M295.41751,118.56492v-1.9152h4.4004v1.9152z" fill="url(#color-9)"></path></g><g><path d="M289.41364,118.56165v-14.49744h1.31047v14.49744z" fill="url(#color-10)"></path><path d="M289.41361,118.58019v-1.9152h4.4004v1.9152z" fill="url(#color-11)"></path></g><path d="M301.23131,118.56801v-14.49744h1.31047v14.49744z" fill="url(#color-12)"></path><path d="M314.0766,118.49938v-14.82549l7.07757,10.86186l0.06981,-10.30898l1.23388,0.01103v15.1514l-7.06761,-10.87766l-0.02786,9.99099z" fill="url(#color-13)"></path><g><path d="M324.03524,105.92453v-1.87296h5.76872v1.87296z" fill="url(#color-14)"></path><path d="M326.36266,118.52409v-14.49744h1.31047v14.49744z" fill="url(#color-15)"></path></g><g><path d="M303.77825,118.62446l4.56338,-15.11303l-0.01272,4.10177l-3.19268,11.01126z" fill="url(#color-16)"></path><path d="M306.07551,114.94905v-1.62225h4.37466v1.62225z" fill="url(#color-17)"></path><path d="M311.45974,118.62845l-3.19268,-11.01126l0.07036,-4.08184l4.48031,15.09308z" fill="url(#color-18)"></path></g></g><text transform="translate(23.83366,156.85619) scale(0.60887,0.60887)" font-size="40" xml:space="preserve" fill="#ffffff" stroke="none" stroke-width="1" font-family="Sans Serif" font-weight="normal" text-anchor="start"><tspan x="0" dy="0">Score</tspan></text><text transform="translate(23.21455,247.25543) scale(0.60887,0.60887)" font-size="40" xml:space="preserve" fill="#ffffff" stroke="none" stroke-width="1" font-family="Sans Serif" font-weight="normal" text-anchor="start"><tspan x="0" dy="0">Rank</tspan></text><text transform="translate(70.5619,336.86198) scale(0.40074,0.40074)" font-size="40" xml:space="preserve" fill="#ffffff" stroke="none" stroke-width="1" font-family="Sans Serif" font-weight="normal" text-anchor="start"><tspan x="0" dy="0">Max Combo</tspan></text><text transform="translate(263.83056,237.81365) scale(0.28796,0.28796)" font-size="40" xml:space="preserve" fill="#ffffff" stroke="#ff0000" stroke-width="2" font-family="Sans Serif" font-weight="normal" text-anchor="start"><tspan x="0" dy="0">LATE</tspan></text><text transform="translate(390.47859,237.81365) scale(0.28796,0.28796)" font-size="40" xml:space="preserve" fill="#ffffff" stroke="#002dff" stroke-width="2" font-family="Sans Serif" font-weight="normal" text-anchor="start"><tspan x="0" dy="0">EARLY</tspan></text></g></g></svg>