<svg version="1.1" xmlns="http://www.w3.org/2000/svg" xmlns:xlink="http://www.w3.org/1999/xlink" width="475.1844" height="384.32341" viewBox="0,0,475.1844,384.32341"><g transform="translate(-4.84475,-69.49303)"><g stroke-miterlimit="10"><text transform="translate(402.3179,216.19475) scale(3.18652,3.18652)" font-size="40" xml:space="preserve" fill="#515438" stroke="none" stroke-width="1" font-family="Sans Serif" font-weight="normal" text-anchor="start"><tspan x="0" dy="0">3</tspan></text><text transform="translate(397.3179,211.19475) scale(3.18652,3.18652)" font-size="40" xml:space="preserve" fill="#a2a86f" stroke="none" stroke-width="1" font-family="Sans Serif" font-weight="normal" text-anchor="start"><tspan x="0" dy="0">3</tspan></text><text transform="translate(392.3179,206.19475) scale(3.18652,3.18652)" font-size="40" xml:space="preserve" fill="#f5ffab" stroke="none" stroke-width="1" font-family="Sans Serif" font-weight="normal" text-anchor="start"><tspan x="0" dy="0">3</tspan></text><text transform="translate(382.6826,448.33929) scale(0.45643,0.45643)" font-size="40" xml:space="preserve" fill="#ffffff" stroke-opacity="0" stroke="#000000" stroke-width="0" font-family="Sans Serif" font-weight="normal" text-anchor="start"><tspan x="0" dy="0">Ver_3_0_13</tspan></text><text transform="translate(142.63185,246.89577) scale(0.5,0.5)" font-size="40" xml:space="preserve" fill="#ffffff" stroke="none" stroke-width="1" font-family="Sans Serif" font-weight="normal" text-anchor="start"><tspan x="0" dy="0">- The Rhythm Game -</tspan></text><g fill="#ffaafc" stroke="none" stroke-width="0"><path d="M21.03682,205.52188v-54.00584h6.48719v54.00584z"></path><path d="M44.86548,205.74655l-15.6154,-23.76459l8.07852,-0.06185l16.16962,23.76458z"></path><path d="M52.39266,167.18431c0,8.65572 -9.38251,15.67257 -19.15111,15.67257c-3.68012,0 -5.9292,0.09754 -5.9292,0.09754l0.05102,-6.01331l5.3543,-0.08416c0,0 4.51139,-0.42458 7.84302,-2.6122c3.95032,-2.59387 4.30474,-6.23184 4.30366,-7.07334c-0.00145,-1.13582 -1.45874,-4.83802 -3.86308,-6.66688c-2.40434,-1.82886 -8.3731,-2.64056 -8.3731,-2.64056l-5.34798,-0.03594l-0.00806,-6.2939c0,0 4.84896,-0.02241 7.43291,-0.02241c9.76861,0 17.68763,7.01685 17.68763,15.67258z"></path></g><g fill="#ffaafc" stroke="none" stroke-width="0"><path d="M184.78927,205.76493l25.30044,-55.89892l0.03,15.17133l-17.74132,40.72759z"></path><path d="M197.62756,192.23753v-6.00026h24.44785v6.00026z"></path><path d="M227.71746,205.84658l-17.74132,-40.72759l0.09001,-15.23134l25.24044,55.95892z"></path></g><g fill="#30e600" stroke="none" stroke-width="0"><path d="M161.82923,178.52871c0,9.1048 -8.05785,26.79541 -26.87519,27.33803c-3.75337,0.10823 -17.78049,-0.25111 -17.78049,-0.25111l0.04333,-7.21122c0,0 8.87506,0.24974 16.94685,-0.02514c13.61014,-0.46348 19.76871,-12.95133 19.81033,-19.5936c0.04299,-6.86207 -6.1429,-19.0332 -19.41101,-19.65987c-5.02106,-0.23715 -17.44659,-0.01666 -17.44659,-0.01666l-0.01323,-7.73827c0,0 12.09425,0.05491 16.68062,0.05491c17.33872,0 28.04539,12.23576 28.04539,27.10293z"></path><path d="M117.02891,203.47678v-52.07887h7.28676v52.07887z"></path></g><path d="M169.96504,205.40563v-54.00772h7.50107v54.00772z" fill="#abbeff" stroke="none" stroke-width="0"></path><path d="M242.5091,205.607v-56.50872l40.49308,41.40098l0.39942,-39.29363l7.05942,0.04203v57.75094l-40.43611,-41.46123l-0.15938,38.08156z" fill="#30e600" stroke="none" stroke-width="0"></path><path d="M346.05185,161.34497c0,0 -8.70788,-3.74603 -15.27708,-3.71242c-11.61768,0.05942 -24.16326,7.82035 -23.93477,21.14667c0.22651,13.21098 12.79723,20.63132 23.47173,20.73121c8.79039,0.08226 15.97302,-4.18932 15.97302,-4.18932l-0.13843,8.37691c0,0 -5.66894,3.78708 -15.74481,3.6249c-17.32943,-0.27893 -31.38177,-12.88833 -31.38177,-28.78689c0,-15.89856 14.05154,-29.0103 31.38177,-28.7869c12.58118,0.16218 15.67881,3.99679 15.67881,3.99679z" fill="#abbeff" stroke="none" stroke-width="0"></path><path d="M354.48519,205.71806v-54.34714h7.54982v54.34714z" fill="#ffaafc" stroke="none" stroke-width="0"></path><path d="M354.67945,158.90756v-7.52284h30.62869v7.52284z" fill="#ffaafc" stroke="none" stroke-width="0"></path><path d="M354.57475,179.75925v-7.52284h30.62869v7.52284z" fill="#ffaafc" stroke="none" stroke-width="0"></path><path d="M354.55953,205.80529v-7.52283h30.62869v7.52283z" fill="#ffaafc" stroke="none" stroke-width="0"></path><g fill="#abbeff" stroke="none" stroke-width="0"><path d="M58.62103,205.58421l25.30045,-55.89892l0.03001,15.17133l-17.74132,40.72759z"></path><path d="M71.45932,192.05681v-6.00026h24.44785v6.00026z"></path><path d="M101.54924,205.66586l-17.74132,-40.72759l0.09001,-15.23134l25.24044,55.95892z"></path></g><g fill="#000000" stroke="#f5ffab" stroke-width="7.5"><path d="M19.63165,411.13844v-126.82945h441.45v126.82945z"></path><path d="M8.59475,411.38047v-126.82945h0.03265v126.82945z"></path><path d="M471.72493,410.65438v-126.82945h0.03265v126.82945z"></path></g><text transform="translate(27.17166,339.79323) scale(0.55462,0.55462)" font-size="40" xml:space="preserve" fill="#ffffff" stroke="none" stroke-width="1" font-family="Sans Serif" font-weight="normal" text-anchor="start"><tspan x="0" dy="0">♪ </tspan><tspan x="0" dy="46.150000000000006px">♪ ネクロファンタジア 　　　 / Demetori</tspan><tspan x="0" dy="46.150000000000006px">♪ 閃光 / [Alexandros]  </tspan></text><text transform="translate(29.17166,309.9027) scale(0.5,0.5)" font-size="40" xml:space="preserve" fill="#ffffff" stroke="none" stroke-width="1" font-family="Sans Serif" font-weight="normal" text-anchor="start"><tspan x="0" dy="0">Pick Up</tspan></text><text transform="translate(55.02166,339.80322) scale(0.36437,0.55462)" font-size="40" xml:space="preserve" fill="#ffffff" stroke="none" stroke-width="1" font-family="Sans Serif" font-weight="normal" text-anchor="start"><tspan x="0" dy="0">Imperishable Night 2006 (2016 Refine) / ゆうゆ / 篠螺悠那</tspan></text><text transform="translate(257.49561,365.18641) scale(0.42317,0.42317)" font-size="40" xml:space="preserve" fill="#ffffff" stroke="none" stroke-width="1" font-family="Sans Serif" font-weight="normal" text-anchor="start"><tspan x="0" dy="0">～ Remix</tspan></text></g></g></svg>