<svg version="1.1" xmlns="http://www.w3.org/2000/svg" xmlns:xlink="http://www.w3.org/1999/xlink" width="73.16676" height="19.49866" viewBox="0,0,73.16676,19.49866"><g transform="translate(-203.41665,-170.25068)"><g data-paper-data="{&quot;isPaintingLayer&quot;:true}" fill="#ffaafc" fill-rule="nonzero" stroke="none" stroke-width="0" stroke-linecap="butt" stroke-linejoin="miter" stroke-miterlimit="10" stroke-dasharray="" stroke-dashoffset="0" style="mix-blend-mode: normal"><g><path d="M209.83599,175.43547c0,2.5752 -2.20741,5.0825 -3.71019,5.0988c-1.99175,0.02161 -2.68115,-0.00401 -2.68115,-0.00401l-0.00036,-2.29459c0,0 0.84653,0.04253 2.64398,-0.00834c0.51894,-0.01469 1.84683,-1.05577 1.85694,-2.7297c0.01011,-1.67466 -1.39617,-2.18534 -1.85802,-2.18545c-1.24324,-0.00031 -2.65652,0.02079 -2.65652,0.02079l-0.00696,-2.31555c0,0 2.18764,-0.02029 2.93033,0.00323c1.82955,0.05796 3.48195,1.75652 3.48195,4.41482z"></path><path d="M210.77297,183.60213c-0.05785,3.4169 -2.49461,5.21051 -3.64139,5.20642c-2.67033,-0.00953 -3.69101,-0.00375 -3.69101,-0.00375l-0.00041,-2.22409c0,0 0.53421,-0.02215 2.58867,-0.01791c1.75416,0.00361 2.84185,-1.81848 2.8534,-2.95179c0.01155,-1.85299 -1.89473,-2.80744 -2.42241,-2.80757c-1.42047,-0.00034 -3.03521,0.023 -3.03521,0.023l-0.00796,-2.56212c0,0 2.4995,-0.02246 3.34806,0.00358c2.09036,0.06413 4.05805,2.39328 4.00826,5.33424z"></path><path d="M203.42707,188.79544v-17.74158h1.82817v17.74158z"></path></g><g><path d="M213.25407,188.85186v-17.66796h1.60932v17.66796z"></path><path d="M218.53175,188.85758l-3.54743,-7.77456l1.83524,-0.02023l3.67334,7.77456z"></path><path d="M220.37734,176.24197c0,2.83171 -2.13147,5.12727 -4.35066,5.12727c-0.83603,0 -1.34697,0.03191 -1.34697,0.03191l0.01159,-1.96725l1.21636,-0.02753c0,0 1.02488,-0.1389 1.78174,-0.85458c0.89742,-0.84858 0.97793,-2.03874 0.97768,-2.31404c-0.00033,-0.37158 -0.33139,-1.58275 -0.8776,-2.18106c-0.54621,-0.59831 -1.90216,-0.86386 -1.90216,-0.86386l-1.21493,-0.01176l-0.00183,-2.05904c0,0 1.10156,-0.00733 1.68857,-0.00733c2.21919,0 4.01819,2.29556 4.01819,5.12727z"></path></g><path d="M222.56389,188.87356v-17.80355h1.60932v17.80355z"></path><g><path d="M234.35531,188.71432v-17.80355h1.60932v17.80355z"></path><path d="M234.35527,188.73708v-2.35196h5.4039v2.35196z"></path></g><g><path d="M226.98221,188.73308v-17.80355h1.60932v17.80355z"></path><path d="M226.98217,188.75585v-2.35196h5.4039v2.35196z"></path></g><path d="M241.49484,188.74088v-17.80355h1.60932v17.80355z"></path><path d="M257.2695,188.65661v-18.20641l8.6916,13.33888l0.08573,-12.65992l1.51526,0.01354v18.60664l-8.67937,-13.35829l-0.03421,12.26941z"></path><g><path d="M269.49915,173.21409v-2.30009h7.08426v2.30009z"></path><path d="M272.35736,188.68693v-17.80355h1.60932v17.80355z"></path></g><g><path d="M244.62261,188.8102l5.60405,-18.55952l-0.01562,5.03717l-3.92077,13.52235z"></path><path d="M247.44377,184.29662v-1.9922h5.37229v1.9922z"></path><path d="M254.05587,188.8151l-3.92077,-13.52235l0.0864,-5.01269l5.50204,18.53503z" data-paper-data="{&quot;index&quot;:null}"></path></g></g></g></svg>