<svg version="1.1" xmlns="http://www.w3.org/2000/svg" xmlns:xlink="http://www.w3.org/1999/xlink" width="103.70462" height="28.51621" viewBox="0,0,103.70462,28.51621"><g transform="translate(-188.14769,-164.46063)"><g data-paper-data="{&quot;isPaintingLayer&quot;:true}" fill-rule="nonzero" stroke-linecap="butt" stroke-linejoin="miter" stroke-miterlimit="10" stroke-dasharray="" stroke-dashoffset="0" style="mix-blend-mode: normal"><path d="M188.14769,192.21063v-27.75h103.70462v27.75z" fill="#1a1a1a" stroke="#000000" stroke-width="0"></path><text transform="translate(259.77918,185.88526) scale(0.3918,0.3918)" font-size="40" xml:space="preserve" fill="#ffffff" fill-rule="nonzero" stroke="none" stroke-width="1" stroke-linecap="butt" stroke-linejoin="miter" stroke-miterlimit="10" stroke-dasharray="" stroke-dashoffset="0" font-family="&quot;ヒラギノ角ゴ Pro W3&quot;, &quot;Hiragino Kaku Gothic Pro&quot;, Osaka, &quot;メイリオ&quot;, Meiryo, &quot;ＭＳ Ｐゴシック&quot;, &quot;MS PGothic&quot;" font-weight="normal" text-anchor="start" style="mix-blend-mode: normal"><tspan x="0" dy="0">以下</tspan></text><g fill="#ffaafc" stroke="none" stroke-width="0"><g><path d="M195.60417,173.65651c0,2.40626 -2.0626,4.74907 -3.46679,4.7643c-1.86108,0.02019 -2.50526,-0.00375 -2.50526,-0.00375l-0.00034,-2.14406c0,0 0.79099,0.03974 2.47053,-0.00779c0.4849,-0.01373 1.72567,-0.98651 1.73512,-2.55062c0.00945,-1.5648 -1.30458,-2.04197 -1.73613,-2.04208c-1.16168,-0.00029 -2.48224,0.01943 -2.48224,0.01943l-0.0065,-2.16364c0,0 2.04412,-0.01896 2.73809,0.00302c1.70953,0.05416 3.25352,1.64129 3.25352,4.12519z"></path><path d="M196.47968,181.28741c-0.05405,3.19274 -2.33095,4.86868 -3.4025,4.86486c-2.49515,-0.0089 -3.44887,-0.0035 -3.44887,-0.0035l-0.00038,-2.07818c0,0 0.49916,-0.0207 2.41884,-0.01674c1.63908,0.00337 2.65541,-1.69918 2.66621,-2.75814c0.01079,-1.73143 -1.77043,-2.62326 -2.26349,-2.62338c-1.32728,-0.00032 -2.83609,0.02149 -2.83609,0.02149l-0.00744,-2.39404c0,0 2.33552,-0.02099 3.12842,0.00335c1.95323,0.05992 3.79183,2.23627 3.7453,4.9843z"></path><path d="M189.6157,186.14002v-16.57767h1.70824v16.57767z"></path></g><g><path d="M198.79801,186.19274v-16.50888h1.50374v16.50888z"></path><path d="M203.72946,186.19808l-3.31471,-7.26452l1.71484,-0.0189l3.43236,7.26452z"></path><path d="M205.45397,174.4101c0,2.64594 -1.99164,4.7909 -4.06524,4.7909c-0.78118,0 -1.2586,0.02982 -1.2586,0.02982l0.01083,-1.83819l1.13656,-0.02572c0,0 0.95764,-0.12979 1.66485,-0.79852c0.83855,-0.79291 0.91377,-1.90499 0.91354,-2.16223c-0.00031,-0.3472 -0.30965,-1.47892 -0.82003,-2.03797c-0.51038,-0.55906 -1.77737,-0.80719 -1.77737,-0.80719l-1.13523,-0.01099l-0.00171,-1.92396c0,0 1.02929,-0.00685 1.57779,-0.00685c2.0736,0 3.75458,2.14496 3.75458,4.7909z"></path></g><path d="M207.49708,186.21301v-16.63557h1.50374v16.63557z"></path><g><path d="M218.51494,186.06422v-16.63557h1.50374v16.63557z"></path><path d="M218.5149,186.08549v-2.19766h5.04939v2.19766z"></path></g><g><path d="M211.62554,186.08175v-16.63557h1.50374v16.63557z"></path><path d="M211.6255,186.10302v-2.19766h5.04939v2.19766z"></path></g><path d="M225.18609,186.08903v-16.63557h1.50374v16.63557z"></path><path d="M239.92588,186.01029v-17.01201l8.1214,12.4638l0.08011,-11.82938l1.41585,0.01265v17.38598l-8.10997,-12.48194l-0.03197,11.46449z"></path><g><path d="M251.35326,171.58086v-2.1492h6.61951v2.1492z"></path><path d="M254.02392,186.03863v-16.63557h1.50374v16.63557z"></path></g><g><path d="M228.10867,186.15381l5.2364,-17.34195l-0.0146,4.70671l-3.66355,12.63524z"></path><path d="M230.74475,181.93634v-1.8615h5.01985v1.8615z"></path><path d="M236.92307,186.15839l-3.66355,-12.63524l0.08073,-4.68384l5.14109,17.31907z" data-paper-data="{&quot;index&quot;:null}"></path></g></g></g></g></svg>