<svg version="1.1" xmlns="http://www.w3.org/2000/svg" xmlns:xlink="http://www.w3.org/1999/xlink" width="103.70461" height="28.51621" viewBox="0,0,103.70461,28.51621"><g transform="translate(-188.1477,-164.46063)"><g data-paper-data="{&quot;isPaintingLayer&quot;:true}" fill-rule="nonzero" stroke-linecap="butt" stroke-linejoin="miter" stroke-miterlimit="10" stroke-dasharray="" stroke-dashoffset="0" style="mix-blend-mode: normal"><path d="M188.1477,192.21063v-27.75h103.70461v27.75z" fill="#1a1a1a" stroke="#000000" stroke-width="0"></path><text transform="translate(259.77919,185.88526) scale(0.3918,0.3918)" font-size="40" xml:space="preserve" fill="#ffffff" fill-rule="nonzero" stroke="none" stroke-width="1" stroke-linecap="butt" stroke-linejoin="miter" stroke-miterlimit="10" stroke-dasharray="" stroke-dashoffset="0" font-family="&quot;ヒラギノ角ゴ Pro W3&quot;, &quot;Hiragino Kaku Gothic Pro&quot;, Osaka, &quot;メイリオ&quot;, Meiryo, &quot;ＭＳ Ｐゴシック&quot;, &quot;MS PGothic&quot;" font-weight="normal" text-anchor="start" style="mix-blend-mode: normal"><tspan x="0" dy="0">以下</tspan></text><g fill="#f5ffab" stroke="none" stroke-width="0"><path d="M203.10137,186.88573v-18.55184l8.8565,13.59196l0.08736,-12.90011l1.54401,0.0138v18.95965l-8.84404,-13.61174l-0.03485,12.50219z"></path><g><path d="M223.41951,187.0338l5.7302,-18.97731l-0.01596,5.15057l-4.00903,13.82674z"></path><path d="M226.30417,182.41863v-2.03704h5.49322v2.03704z"></path><path d="M233.06511,187.03882l-4.00903,-13.82674l0.08835,-5.12553l5.62589,18.95227z" data-paper-data="{&quot;index&quot;:null}"></path></g><g><path d="M215.99626,186.89647v-18.00407h1.66642v18.00407z"></path><path d="M216.03915,171.38913v-2.49216h6.76046v2.49216z"></path><path d="M216.01603,178.29686v-2.49216h6.76046v2.49216z"></path><path d="M216.01267,186.92536v-2.49216h6.76046v2.49216z"></path></g><g><path d="M236.54715,186.95204v-18.05377h1.64446v18.05377z"></path><path d="M241.94007,186.95787l-3.6249,-7.94433l1.87531,-0.02068l3.75355,7.94433z"></path><path d="M243.82597,174.06679c0,2.89354 -2.17802,5.23923 -4.44566,5.23923c-0.85429,0 -1.37638,0.0326 -1.37638,0.0326l0.01184,-2.01021l1.24293,-0.02813c0,0 1.04726,-0.14194 1.82064,-0.87324c0.91701,-0.86711 0.99929,-2.08326 0.99903,-2.36457c-0.00034,-0.3797 -0.33862,-1.61732 -0.89675,-2.22869c-0.55813,-0.61137 -1.9437,-0.88272 -1.9437,-0.88272l-1.24146,-0.01202l-0.00187,-2.10401c0,0 1.12562,-0.0075 1.72545,-0.0075c2.26765,0 4.10593,2.34569 4.10593,5.23923z"></path></g></g></g></g></svg>